<svg id="Group_230" data-name="Group 230" xmlns="http://www.w3.org/2000/svg" width="31.761" height="30.38" viewBox="0 0 31.761 30.38">
  <path id="Polygon_2" data-name="Polygon 2" d="M17.534,3.324A2.314,2.314,0,0,1,21.476,4.6l0,.028a2.314,2.314,0,0,0,2.67,1.94l.019,0a2.314,2.314,0,0,1,2.438,3.344l-.03.058A2.314,2.314,0,0,0,27.594,13.1l.054.027a2.314,2.314,0,0,1,0,4.135l-.054.027a2.314,2.314,0,0,0-1.017,3.129l.03.058a2.314,2.314,0,0,1-2.438,3.344l-.019,0a2.314,2.314,0,0,0-2.67,1.94l0,.028a2.314,2.314,0,0,1-3.942,1.276h0a2.314,2.314,0,0,0-3.307,0h0a2.314,2.314,0,0,1-3.942-1.276l0-.028a2.314,2.314,0,0,0-2.67-1.94l-.019,0a2.314,2.314,0,0,1-2.438-3.344l.03-.058a2.314,2.314,0,0,0-1.017-3.129l-.054-.027a2.314,2.314,0,0,1,0-4.135l.054-.027A2.314,2.314,0,0,0,5.183,9.966l-.03-.058A2.314,2.314,0,0,1,7.591,6.565l.019,0a2.314,2.314,0,0,0,2.67-1.94l0-.028a2.314,2.314,0,0,1,3.942-1.276h0a2.314,2.314,0,0,0,3.307,0Z" transform="translate(0)" fill="#48c28b"/>
  <path id="Icon_material-done" data-name="Icon material-done" d="M9.1,15.964l-3-3-1,1,4,4L17.66,9.4l-1-1Z" transform="translate(4.846 2.009)" fill="#f7f7f7"/>
</svg>
